<?xml version="1.0" encoding="UTF-8"?>
<svg version="1.1" xmlns="http://www.w3.org/2000/svg" width="500" height="500">
<path d="M0 0 C0 3.52952051 -0.57922584 4.07991796 -2.74609375 6.73828125 C-3.33205322 7.46909912 -3.9180127 8.19991699 -4.52172852 8.95288086 C-5.15393311 9.73155518 -5.7861377 10.51022949 -6.4375 11.3125 C-23.1535563 31.44214548 -23.1535563 31.44214548 -29 56 C-27.84644245 58.91425065 -27.05223854 60.32468273 -24.4296875 62.0078125 C-20.83207853 63.47693256 -17.11301594 64.11101676 -13.3125 64.875 C-3.26691836 67.0159602 4.73405039 69.03647453 11.1875 77.5703125 C15.91351257 85.15162433 14.97691081 94.51161254 13.15234375 102.89453125 C7.11971283 124.60547787 -4.68336029 145.03689072 -15.1875 164.8125 C-35.79577798 202.93739629 -35.79577798 202.93739629 -38.37890625 244.95703125 C-36.2445688 251.28415605 -32.80574751 254.81211682 -27 258 C-19.28771983 261.66838794 -11.55882835 262.21851231 -3.125 262.3125 C-1.83529297 262.35600586 -1.83529297 262.35600586 -0.51953125 262.40039062 C5.42685501 262.45904239 10.10466819 261.53032945 15 258 C17.9024494 254.62198542 19.22742995 251.39231672 19.5 246.9375 C18.92748326 242.42893068 17.99756755 240.39198433 15 237 C10.28673135 234.15240019 6.17110777 232.82555701 0.69921875 233.0078125 C-0.11353516 233.02457031 -0.92628906 233.04132813 -1.76367188 233.05859375 C-3.45140273 233.10256528 -5.13894568 233.15453885 -6.82617188 233.21484375 C-13.82324924 233.33633996 -18.45061287 232.21685838 -23.875 227.5 C-27.12000606 223.68234581 -27.35132232 220.39921968 -27.2734375 215.5859375 C-26.08843121 204.37916376 -19.12764312 193.22544941 -11.015625 185.625 C-1.57684222 178.01543869 8.0423942 172.80266367 20.3125 172.9375 C21.38113281 172.94652344 22.44976562 172.95554688 23.55078125 172.96484375 C24.76314453 172.98224609 24.76314453 172.98224609 26 173 C23.63713583 177.62299511 20.89619367 181.44817991 17.5625 185.4375 C10.78917825 192.61370191 10.78917825 192.61370191 8.171875 201.52734375 C11.19354143 210.5495836 26.38179462 215.74883693 34.359375 219.72705078 C39.61139998 222.2588609 44.95068558 224.60972052 50.32543945 226.86865234 C58.25516484 230.28440899 63.15169668 234.1608636 67 242 C70.00846242 251.90786956 67.250882 260.85159274 62.5625 269.71875 C51.63238281 288.00567684 34.96948174 299.79313224 16.75 310.0625 C-2.31330512 320.84555839 -15.5095534 334.02777615 -21.74609375 355.578125 C-22.86902854 360.13181919 -23.19919337 364.31895582 -23 369 C-22.46632813 368.2575 -21.93265625 367.515 -21.3828125 366.75 C-18.77219415 363.73708964 -16.2897764 362.04063746 -12.875 360 C-12.30821533 359.6596875 -11.74143066 359.319375 -11.1574707 358.96875 C-6.23323479 356.04945561 -1.17988175 353.43208895 4 351 C3.37223668 355.46220956 1.60729546 359.13543288 -0.375 363.125 C-4.79594917 372.3550957 -8.35505656 381.57359262 -7 392 C-5.65300353 395.59199058 -4.72251629 396.60433632 -1.375 398.4375 C3.14243666 399.19040611 6.74832278 398.70067089 11 397 C15.53275017 392.93214729 16.74686882 388.11751036 17.22265625 382.2578125 C17.40669363 375.84050914 16.72308647 369.89225399 15.5 363.625 C12.70358881 349.03061516 12.7184796 335.06067216 20.8125 322.0625 C27.24451868 313.30468903 35.28504929 308.8175603 46 307 C64.01523023 305.73577332 79.19043378 315.57058431 92.41796875 326.67285156 C93.51736652 327.59512414 94.62477726 328.50789478 95.73828125 329.41308594 C97.17717581 330.5866106 98.59113765 331.79058503 100 333 C100 333.33 100 333.66 100 334 C92.69089475 333.57204006 85.4979927 332.97926042 78.25 331.9375 C66.5025919 330.32177583 55.65224811 330.14126354 45 336 C44.34 336 43.68 336 43 336 C41.96069123 343.60510065 43.61135406 348.12971541 47.95703125 354.375 C49.78015349 356.71752036 51.66558201 358.89222325 53.6875 361.0625 C68.3403803 376.99324777 78.66309918 397.45895754 85 418 C85.38285156 419.23943359 85.38285156 419.23943359 85.7734375 420.50390625 C89.8698535 436.14746589 88.79413249 453.88045185 80.90625 468.12890625 C72.20312037 481.23710353 59.27028484 491.58319804 44 496 C41.18197127 496.55436631 38.82618434 496.88183201 36 497 C34.54980469 497.07734375 34.54980469 497.07734375 33.0703125 497.15625 C19.05196997 497.55965554 8.15962504 493.69215692 -4 487 C-4.72977051 486.60296875 -5.45954102 486.2059375 -6.21142578 485.796875 C-14.91911199 481.05421422 -23.56386863 476.21429225 -32 471 C-29.45533281 469.7276664 -28.49144211 470.14999277 -25.73828125 470.7421875 C-24.87388428 470.92120605 -24.0094873 471.10022461 -23.11889648 471.28466797 C-22.19278564 471.47947754 -21.2666748 471.67428711 -20.3125 471.875 C-4.2347807 475.07167554 11.63954875 477.57057331 26.44921875 468.84765625 C31.8248431 464.95382728 36.24250104 460.06375394 39 454 C37.81664062 454.144375 36.63328125 454.28875 35.4140625 454.4375 C2.2871672 458.38184643 -29.30930333 452.9275233 -56 432 C-86.60170895 406.01016556 -93.14516585 358.20914015 -96.4765625 320.69921875 C-97.17294034 312.14110165 -97.69011503 303.58060809 -98 295 C-120.85412199 334.17077646 -129.75962907 372.95587689 -125.71191406 418.22167969 C-125.21276782 423.84373613 -124.89145465 429.35564156 -125 435 C-141.45472238 429.72782925 -153.84225905 419.99478415 -166 408 C-166.84534302 407.19187866 -166.84534302 407.19187866 -167.70776367 406.36743164 C-172.04799425 402.15870509 -175.73455664 397.67905131 -179.3125 392.8125 C-179.83650391 392.11447266 -180.36050781 391.41644531 -180.90039062 390.69726562 C-183.24038977 387.54830391 -185.31626034 384.5560856 -187 381 C-187.82471424 415.9587204 -182.23817024 449.21318585 -157.50027466 475.59967041 C-153.71041772 479.52700998 -149.8259192 483.35819057 -145.9375 487.1875 C-144.77361636 488.34132077 -143.61020205 489.49561516 -142.44726562 490.65039062 C-139.63687122 493.43906341 -136.8202728 496.22131942 -134 499 C-134.66 499.33 -135.32 499.66 -136 500 C-138.30883789 498.97460938 -138.30883789 498.97460938 -141.22265625 497.34375 C-142.84844604 496.43919067 -142.84844604 496.43919067 -144.50708008 495.51635742 C-145.69254805 494.84481696 -146.87767977 494.17268263 -148.0625 493.5 C-149.2794445 492.81533949 -150.49648673 492.13085266 -151.71362305 491.4465332 C-195.57385605 466.6985805 -195.57385605 466.6985805 -212 451 C-212.74636719 450.32839844 -213.49273437 449.65679687 -214.26171875 448.96484375 C-238.94215579 425.92115472 -242.761064 392.56893788 -244.125 360.625 C-244.21162031 358.7135135 -244.29885569 356.80205478 -244.38671875 354.890625 C-244.5982249 350.26070565 -244.80145001 345.63049231 -245 341 C-244.34 341 -243.68 341 -243 341 C-240.36 348.26 -237.72 355.52 -235 363 C-235.05220703 360.26396484 -235.05220703 360.26396484 -235.10546875 357.47265625 C-235.61705478 319.34122623 -223.20713415 296.09839165 -202.01708984 265.16259766 C-183.80429994 239.82234889 -183.80429994 239.82234889 -179 210 C-180.79053434 203.26273518 -184.37941172 197.25963898 -187.828125 191.25 C-189 189 -189 189 -189 187 C-183.77737372 188.62045914 -179.88342725 191.88572992 -175.625 195.1875 C-174.53058594 196.01604492 -174.53058594 196.01604492 -173.4140625 196.86132812 C-167.18176412 201.6524075 -160.78022429 206.64121896 -157.125 213.75 C-156.73570312 214.48734375 -156.34640625 215.2246875 -155.9453125 215.984375 C-151.28442247 225.92247109 -154.54168485 236.2396682 -158 246 C-167.54845351 273.09505812 -173.57999042 297.87267383 -164 326 C-163.91024902 325.13648926 -163.82049805 324.27297852 -163.72802734 323.38330078 C-157.95866692 269.116826 -143.11899434 226.53573259 -103.828125 187.66796875 C-102.49246243 186.33859959 -101.15732905 185.00869856 -99.82269287 183.67829895 C-96.34456232 180.21332456 -92.86087328 176.75400063 -89.37542725 173.29638672 C-83.78418933 167.74866101 -78.19994698 162.1939148 -72.61891937 156.63591957 C-70.68548688 154.71259607 -68.74862221 152.79278184 -66.81134033 150.87333679 C-60.98777068 145.08974454 -55.27111564 139.30102934 -50 133 C-49.05368825 131.90746199 -48.10600195 130.81611125 -47.15625 129.7265625 C-31.74232237 112.4415933 -31.74232237 112.4415933 -24.828125 91.0390625 C-25.13168771 87.43770491 -26.15056954 85.12489974 -28 82 C-32.30620969 79.02262068 -37.45061293 79.61018466 -42.4921875 79.44140625 C-47.82258777 78.77065432 -51.01674081 77.00560599 -54.75 73.1875 C-58.55854305 67.79206401 -59.91485895 62.57994703 -59 56 C-52.1461944 29.92951162 -23.21111848 14.23169772 -2 1 C-1.34 0.67 -0.68 0.34 0 0 Z M-234 366 C-233 369 -233 369 -233 369 Z " fill="#F68118" transform="translate(318,0)"/>
<path d="M0 0 C0.66 0 1.32 0 2 0 C3 1 4 2 5 3 C5.66 3 6.32 3 7 3 C7.8971875 4.485 7.8971875 4.485 8.8125 6 C9.534375 6.99 10.25625 7.98 11 9 C13.6704053 9.50241322 13.6704053 9.50241322 16 9 C15.67 10.65 15.34 12.3 15 14 C17.33214148 15.20628008 19.49642139 16.1654738 22 17 C23.6875 18.5625 23.6875 18.5625 25 20 C25.598125 19.484375 26.19625 18.96875 26.8125 18.4375 C27.534375 17.963125 28.25625 17.48875 29 17 C29.99 17.33 30.98 17.66 32 18 C31.01 20.475 31.01 20.475 30 23 C33.45776546 24.72888273 37.22401852 25.26578138 41 26 C40.67 28.31 40.34 30.62 40 33 C42.64 33 45.28 33 48 33 C48.93761637 29.68033124 49.75067812 26.44714594 50 23 C48.29039594 20.45354496 48.29039594 20.45354496 46 19 C46 18.34 46 17.68 46 17 C44.35 17 42.7 17 41 17 C40.855625 16.030625 40.71125 15.06125 40.5625 14.0625 C40.32437659 11.13513227 40.32437659 11.13513227 39 10 C37.60804085 5.82412255 39.17676781 3.86525224 41 0 C42.82301265 2.73451898 44.24104963 5.48981531 45.66381836 8.44482422 C53.67094293 25.00904996 65.05577835 37.23594528 78.0625 50.125 C79.03344096 51.09090681 80.00414523 52.05705162 80.97460938 53.0234375 C83.31410502 55.35129387 85.65592052 57.67676105 88 60 C87.01 60.495 87.01 60.495 86 61 C83.69116211 59.97460938 83.69116211 59.97460938 80.77734375 58.34375 C79.69348389 57.74071045 78.60962402 57.1376709 77.49291992 56.51635742 C76.30745195 55.84481696 75.12232023 55.17268263 73.9375 54.5 C72.7205555 53.81533949 71.50351327 53.13085266 70.28637695 52.4465332 C26.1903 27.56550654 26.1903 27.56550654 10 12 C9.14921875 11.18917969 8.2984375 10.37835938 7.421875 9.54296875 C1.14444337 3.4333301 1.14444337 3.4333301 0 0 Z " fill="#F59D13" transform="translate(96,439)"/>
<path d="M0 0 C0 3.52952051 -0.57922584 4.07991796 -2.74609375 6.73828125 C-3.33221436 7.46950195 -3.91833496 8.20072266 -4.5222168 8.95410156 C-5.47028198 10.12150879 -5.47028198 10.12150879 -6.4375 11.3125 C-13.89452809 20.68640242 -20.76611558 30.17574369 -26 41 C-27.32 40.34 -28.64 39.68 -30 39 C-30 37.02 -30 35.04 -30 33 C-26.535 32.505 -26.535 32.505 -23 32 C-22.835 30.72125 -22.67 29.4425 -22.5 28.125 C-22.36078125 27.04605469 -22.36078125 27.04605469 -22.21875 25.9453125 C-21.9627515 23.99501656 -21.9627515 23.99501656 -22 22 C-23.65 22.66 -25.3 23.32 -27 24 C-27 23.34 -27 22.68 -27 22 C-27.66 22 -28.32 22 -29 22 C-29.33 23.32 -29.66 24.64 -30 26 C-30.66 26 -31.32 26 -32 26 C-31.34 27.65 -30.68 29.3 -30 31 C-31.32 31.33 -32.64 31.66 -34 32 C-34 31.34 -34 30.68 -34 30 C-34.61875 30.309375 -35.2375 30.61875 -35.875 30.9375 C-37.25 31.625 -38.625 32.3125 -40 33 C-39.67 33.99 -39.34 34.98 -39 36 C-38.67 36.99 -38.34 37.98 -38 39 C-40.475 39.495 -40.475 39.495 -43 40 C-43.33 39.34 -43.66 38.68 -44 38 C-45.54166642 39.37485532 -45.54166642 39.37485532 -47 41 C-47 41.66 -47 42.32 -47 43 C-47.969375 43.7425 -48.93875 44.485 -49.9375 45.25 C-52.59729339 47.34654302 -52.95610421 47.83382309 -53.875 51.3125 C-53.91625 52.199375 -53.9575 53.08625 -54 54 C-53.34 54.33 -52.68 54.66 -52 55 C-51.67386382 59.67461851 -52.29417212 62.16674383 -55 66 C-54.01 66 -53.02 66 -52 66 C-51.67 65.01 -51.34 64.02 -51 63 C-50.34 63 -49.68 63 -49 63 C-49 66.96 -49 70.92 -49 75 C-47.02 74.505 -47.02 74.505 -45 74 C-45 73.34 -45 72.68 -45 72 C-44.34 72 -43.68 72 -43 72 C-42.67 72.99 -42.34 73.98 -42 75 C-39.90280128 76.02281518 -39.90280128 76.02281518 -37.4375 76.6875 C-36.61121094 76.93886719 -35.78492188 77.19023438 -34.93359375 77.44921875 C-34.29550781 77.63097656 -33.65742188 77.81273438 -33 78 C-33 78.33 -33 78.66 -33 79 C-47.23943662 79.57042254 -47.23943662 79.57042254 -52 76 C-56.82645881 71.06384894 -58.69345915 67.06540854 -59.375 60.25 C-58.93318569 47.31465886 -48.90120141 36.18975205 -40.07421875 27.66015625 C-28.41686356 17.25644967 -13.98538742 6.99269371 0 0 Z " fill="#EB642B" transform="translate(318,0)"/>
<path d="M0 0 C0.61818604 0.11593506 1.23637207 0.23187012 1.87329102 0.35131836 C19.79542935 3.67959667 36.027547 6.62990593 54 2 C53.67 2.99 53.34 3.98 53 5 C51.68 5 50.36 5 49 5 C49 5.66 49 6.32 49 7 C49.99 6.67 50.98 6.34 52 6 C52.495 6.99 52.495 6.99 53 8 C50.69 8.33 48.38 8.66 46 9 C46 8.34 46 7.68 46 7 C45.34 7 44.68 7 44 7 C44 7.99 44 8.98 44 10 C43.34 10 42.68 10 42 10 C41.6596875 10.9590625 41.6596875 10.9590625 41.3125 11.9375 C40 14 40 14 37.375 14.75 C36.59125 14.8325 35.8075 14.915 35 15 C35 15.99 35 16.98 35 18 C36.98 18 38.96 18 41 18 C41.495 20.475 41.495 20.475 42 23 C35.72974541 21.16912932 30.41189189 18.75392375 24.875 15.3125 C18.54802851 11.47213593 12.15659766 7.86693794 5.55810547 4.51293945 C1.10452287 2.20904573 1.10452287 2.20904573 0 0 Z " fill="#F68D17" transform="translate(286,470)"/>
<path d="M0 0 C2.97 0.33 5.94 0.66 9 1 C10.77075099 21.45849802 10.77075099 21.45849802 9 25 C9.60760482 27.3494053 10.27129528 29.68529088 11 32 C9.6078125 31.938125 9.6078125 31.938125 8.1875 31.875 C4.84190281 31.72863661 4.84190281 31.72863661 2 34 C1.74969023 36.58380177 1.74969023 36.58380177 2 39 C1.01 39 0.02 39 -1 39 C-5.22831331 43.34820378 -5.22831331 43.34820378 -7 49 C-7.99 49 -8.98 49 -10 49 C-12.15028304 49.94978897 -12.15028304 49.94978897 -14 51 C-12.70687552 48.24475461 -11.27928449 45.91452648 -9.390625 43.53125 C3.05863134 28.46217615 3.05863134 28.46217615 7 10 C6.10167757 6.28355316 4.71893544 3.63677139 1.8125 1.0625 C1.214375 0.711875 0.61625 0.36125 0 0 Z " fill="#E86B2D" transform="translate(286,79)"/>
<path d="M0 0 C1.60294922 0.01353516 1.60294922 0.01353516 3.23828125 0.02734375 C4.04652344 0.03894531 4.85476563 0.05054688 5.6875 0.0625 C3.32463583 4.68549511 0.58369367 8.51067991 -2.75 12.5 C-9.4817416 19.78470404 -9.4817416 19.78470404 -12.3125 28.8125 C-11.24831812 31.20690924 -10.00931361 33.07058837 -8.3125 35.0625 C-11.33156912 34.73902831 -12.37506576 34.00331617 -14.625 31.875 C-16.3125 29.0625 -16.3125 29.0625 -16.0625 25.75 C-15.69125 24.4196875 -15.69125 24.4196875 -15.3125 23.0625 C-15.9725 23.0625 -16.6325 23.0625 -17.3125 23.0625 C-17.3125 22.4025 -17.3125 21.7425 -17.3125 21.0625 C-16.3225 21.0625 -15.3325 21.0625 -14.3125 21.0625 C-14.3125 20.4025 -14.3125 19.7425 -14.3125 19.0625 C-13.69375 18.485 -13.075 17.9075 -12.4375 17.3125 C-9.97142567 14.70136247 -9.24792439 12.49238945 -8.3125 9.0625 C-7.9825 9.7225 -7.6525 10.3825 -7.3125 11.0625 C-5.6625 10.7325 -4.0125 10.4025 -2.3125 10.0625 C-2.0959375 9.1653125 -2.0959375 9.1653125 -1.875 8.25 C-1.4252561 6.50099596 -0.88357659 4.77572977 -0.3125 3.0625 C-8.33853398 2.63423336 -12.82730572 3.60236286 -19.5 8.3125 C-20.428125 8.89 -21.35625 9.4675 -22.3125 10.0625 C-23.3025 9.7325 -24.2925 9.4025 -25.3125 9.0625 C-18.00599371 2.46307496 -9.70412696 -0.10663876 0 0 Z M-17.3125 31.0625 C-16.3225 31.0625 -15.3325 31.0625 -14.3125 31.0625 C-14.6425 32.0525 -14.9725 33.0425 -15.3125 34.0625 C-15.9725 33.7325 -16.6325 33.4025 -17.3125 33.0625 C-17.3125 32.4025 -17.3125 31.7425 -17.3125 31.0625 Z " fill="#EC7028" transform="translate(338.3125,172.9375)"/>
<path d="M0 0 C0.33 0 0.66 0 1 0 C1.95054787 4.84779415 2.00287417 7.52298715 0 12 C-0.04165365 13.66614608 -0.04165365 15.33385392 0 17 C-0.165 17.804375 -0.33 18.60875 -0.5 19.4375 C-1.06839943 22.3505471 -1.06304439 25.03691359 -1 28 C-1 29.32 -1 30.64 -1 32 C-0.34 32.66 0.32 33.32 1 34 C1.23046875 36.3125 1.23046875 36.3125 1.1875 39 C1.18105469 39.886875 1.17460938 40.77375 1.16796875 41.6875 C1 44 1 44 0 46 C-0.99 46 -1.98 46 -3 46 C-3 46.99 -3 47.98 -3 49 C-2.01 49.33 -1.02 49.66 0 50 C0 52.31 0 54.62 0 57 C-1.485 57.495 -1.485 57.495 -3 58 C-7.04303149 38.54291097 -5.63558138 18.96495648 0 0 Z " fill="#F2971D" transform="translate(88,311)"/>
<path d="M0 0 C1.1328125 3.6953125 1.1328125 3.6953125 -0.0625 6.4375 C-2.36013184 9.4763034 -5.07526253 11.57309018 -8 14 C-9.69840614 16.54760921 -10.16991049 18.66831459 -10.9375 21.6875 C-11.4634375 23.3271875 -11.4634375 23.3271875 -12 25 C-12.99 25.33 -13.98 25.66 -15 26 C-15.99 25.34 -16.98 24.68 -18 24 C-21.48832306 26.20927127 -22.73058503 28.08597051 -24 32 C-24.66 32 -25.32 32 -26 32 C-26 32.99 -26 33.98 -26 35 C-26.66 35 -27.32 35 -28 35 C-28.268125 35.969375 -28.53625 36.93875 -28.8125 37.9375 C-29.204375 38.948125 -29.59625 39.95875 -30 41 C-31.485 41.495 -31.485 41.495 -33 42 C-26.75624044 25.27030931 -12.54558444 12.1865693 0 0 Z " fill="#EE8220" transform="translate(213,189)"/>
<path d="M0 0 C5.62303757 4.67466337 10.79741554 9.67765667 15.9375 14.875 C16.71673828 15.65875 17.49597656 16.4425 18.29882812 17.25 C20.20154085 19.16438581 22.10186171 21.08108034 24 23 C23.01 23.495 23.01 23.495 22 24 C19.42138672 22.81591797 19.42138672 22.81591797 16.1796875 20.9921875 C15.60219757 20.66969025 15.02470764 20.34719299 14.42971802 20.0149231 C12.57384849 18.9757324 10.72459217 17.92531443 8.875 16.875 C7.65142927 16.18941195 6.42747493 15.50450805 5.203125 14.8203125 C-0.96265591 11.36210006 -7.04751346 7.81493527 -13 4 C-11.68 3.67 -10.36 3.34 -9 3 C-9 3.66 -9 4.32 -9 5 C-7.68 5 -6.36 5 -5 5 C-4.34 5.66 -3.68 6.32 -3 7 C-2.67 6.67 -2.34 6.34 -2 6 C-0.33382885 5.95936168 1.33388095 5.957279 3 6 C2.04134491 3.66924071 2.04134491 3.66924071 -1 2 C-0.67 1.34 -0.34 0.68 0 0 Z " fill="#F29C1B" transform="translate(160,476)"/>
<path d="M0 0 C6.57808271 2.09486446 12.73215335 4.93915788 19 7.8125 C20.74410156 8.59463867 20.74410156 8.59463867 22.5234375 9.39257812 C36.41516709 15.75829632 36.41516709 15.75829632 39.375 21.8125 C39.58125 22.534375 39.7875 23.25625 40 24 C38.906875 23.979375 37.81375 23.95875 36.6875 23.9375 C33.05615809 23.81455548 33.05615809 23.81455548 30 25 C30 22.66666667 30 20.33333333 30 18 C29.01 18.33 28.02 18.66 27 19 C27 18.01 27 17.02 27 16 C25.68 16 24.36 16 23 16 C22.01 16 21.02 16 20 16 C20 15.01 20 14.02 20 13 C18.15215825 11.262261 18.15215825 11.262261 15.75 9.75 C14.96109375 9.20859375 14.1721875 8.6671875 13.359375 8.109375 C10.60248085 6.81308702 9.80450935 7.09645515 7 8 C3.65097825 6.56470496 2.29937245 5.61300074 0.6875 2.3125 C0.460625 1.549375 0.23375 0.78625 0 0 Z " fill="#F06D27" transform="translate(343,216)"/>
<path d="M0 0 C1 4 1 4 1 6 C0.505 6.45375 0.01 6.9075 -0.5 7.375 C-2.45218674 9.12128967 -2.45218674 9.12128967 -2 13 C-3.216875 13.391875 -4.43375 13.78375 -5.6875 14.1875 C-9.75310587 15.68875729 -12.05322441 17.80064364 -15 21 C-15.99 21.33 -16.98 21.66 -18 22 C-18.33 22.99 -18.66 23.98 -19 25 C-19.66 25 -20.32 25 -21 25 C-21 25.99 -21 26.98 -21 28 C-22.32 28 -23.64 28 -25 28 C-25.33 28.99 -25.66 29.98 -26 31 C-26.99 31.33 -27.98 31.66 -29 32 C-29.33 32.66 -29.66 33.32 -30 34 C-29.34 34.33 -28.68 34.66 -28 35 C-31.01031744 35.93423645 -31.86650268 36.04449911 -35 35 C-23.45 23.45 -11.9 11.9 0 0 Z " fill="#EF7623" transform="translate(249,153)"/>
<path d="M0 0 C8.56055858 0.63411545 17.46618881 3.2259343 24 9 C29.91590006 16.83032926 29.56205719 24.63238011 29 34 C28.67 34 28.34 34 28 34 C27.95101563 33.14535156 27.90203125 32.29070312 27.8515625 31.41015625 C27.77679688 30.30542969 27.70203125 29.20070313 27.625 28.0625 C27.55539062 26.96035156 27.48578125 25.85820313 27.4140625 24.72265625 C27.27742188 23.82417969 27.14078125 22.92570312 27 22 C26.34 21.67 25.68 21.34 25 21 C25 18.69 25 16.38 25 14 C23.02 14.33 21.04 14.66 19 15 C17.0549 12.08235 16.54723683 10.37462715 16 7 C15.00419922 7.08701172 15.00419922 7.08701172 13.98828125 7.17578125 C6.70643359 7.54784646 6.70643359 7.54784646 2.9375 4.625 C1 2 1 2 0 0 Z " fill="#E8682F" transform="translate(303,65)"/>
<path d="M0 0 C2 1 2 1 3.125 4.0625 C3.41375 5.031875 3.7025 6.00125 4 7 C6.97 7.495 6.97 7.495 10 8 C9.67 10.97 9.34 13.94 9 17 C9.66 17.33 10.32 17.66 11 18 C11 19.66666667 11 21.33333333 11 23 C9.5766489 21.31813427 8.16164788 19.62920061 6.75 17.9375 C5.96109375 16.99777344 5.1721875 16.05804688 4.359375 15.08984375 C2 12 2 12 -2 5 C-2 14.57 -2 24.14 -2 34 C-4.82879286 31.17120714 -4.3142666 29.20075802 -4.4140625 25.2421875 C-4.43342865 24.57913605 -4.4527948 23.91608459 -4.4727478 23.23294067 C-4.53255954 21.11375823 -4.57893388 18.9945215 -4.625 16.875 C-4.66317845 15.43877831 -4.70223011 14.00257955 -4.7421875 12.56640625 C-4.83826125 9.04448064 -4.92228642 5.52238392 -5 2 C-2.625 0.9375 -2.625 0.9375 0 0 Z " fill="#F0971E" transform="translate(133,376)"/>
<path d="M0 0 C5.28559221 1.62876102 9.25180573 4.97864975 13.5625 8.3125 C14.69461914 9.16618164 14.69461914 9.16618164 15.84960938 10.03710938 C19.77790634 13.05168792 23.11192555 15.91686026 26 20 C23.0625 19.25 23.0625 19.25 20 18 C19.125 15.875 19.125 15.875 19 14 C16.71163778 13.58013054 16.71163778 13.58013054 14 14 C12.28398393 15.61581075 10.61161415 17.28004204 9 19 C7.4933028 16.2118978 5.99580196 13.41896042 4.5 10.625 C4.07074219 9.8309375 3.64148438 9.036875 3.19921875 8.21875 C2.79316406 7.45820313 2.38710937 6.69765625 1.96875 5.9140625 C1.40317383 4.8614624 1.40317383 4.8614624 0.82617188 3.78759766 C0 2 0 2 0 0 Z M18 18 C20 19 20 19 20 19 Z " fill="#EB8324" transform="translate(129,187)"/>
<path d="M0 0 C1.32 0 2.64 0 4 0 C1.62375992 10.03301369 -6.74074031 19.02252304 -14 26 C-16.26953125 27.28125 -16.26953125 27.28125 -18 28 C-18 25 -18 25 -17 23 C-17.66 22.34 -18.32 21.68 -19 21 C-18.625 18.875 -18.625 18.875 -18 17 C-15.69 17.33 -13.38 17.66 -11 18 C-10.67 17.01 -10.34 16.02 -10 15 C-9.01 15.33 -8.02 15.66 -7 16 C-7.33 15.01 -7.66 14.02 -8 13 C-7.0625 10.8125 -7.0625 10.8125 -6 9 C-5.34 9 -4.68 9 -4 9 C-3.79503906 8.43410156 -3.59007812 7.86820312 -3.37890625 7.28515625 C-3.10949219 6.55167969 -2.84007812 5.81820313 -2.5625 5.0625 C-2.29566406 4.33160156 -2.02882813 3.60070312 -1.75390625 2.84765625 C-1 1 -1 1 0 0 Z " fill="#EE7525" transform="translate(379,263)"/>
<path d="M0 0 C0.89130413 2.6739124 1.47731534 5.23723823 2 8 C0.68 7.67 -0.64 7.34 -2 7 C-2.33 7.66 -2.66 8.32 -3 9 C-2.01 9.33 -1.02 9.66 0 10 C-2.62198774 12.15377564 -4.64404172 13.40072174 -8 14 C-7.67 15.98 -7.34 17.96 -7 20 C-11.32448133 20.73832608 -15.65535464 21.39174965 -20 22 C-15.67657827 16.88505952 -11.21200084 11.94157501 -6.625 7.0625 C-5.98433594 6.37865234 -5.34367187 5.69480469 -4.68359375 4.99023438 C-3.12370973 3.32558203 -1.56249827 1.6621981 0 0 Z " fill="#F27020" transform="translate(270,131)"/>
<path d="M0 0 C0.66 0.33 1.32 0.66 2 1 C1.59160889 1.81154541 1.18321777 2.62309082 0.76245117 3.45922852 C-0.76556405 6.49811951 -2.29171489 9.53793229 -3.81665039 12.57836914 C-4.47444499 13.88895917 -5.1329601 15.19918786 -5.79223633 16.5090332 C-6.74494435 18.4021888 -7.69497134 20.29667005 -8.64453125 22.19140625 C-9.21534424 23.32779541 -9.78615723 24.46418457 -10.37426758 25.63500977 C-12.02640515 29.05465417 -13.53065156 32.49886377 -15 36 C-15.33 36 -15.66 36 -16 36 C-16.33 33.03 -16.66 30.06 -17 27 C-16.34 26.67 -15.68 26.34 -15 26 C-14.67 25.01 -14.34 24.02 -14 23 C-13.34 23 -12.68 23 -12 23 C-11.690625 22.21625 -11.38125 21.4325 -11.0625 20.625 C-10 18 -10 18 -9 16 C-8.93003986 14.29297265 -8.91559846 12.58331997 -8.9375 10.875 C-8.94652344 9.96492187 -8.95554687 9.05484375 -8.96484375 8.1171875 C-8.97644531 7.41851562 -8.98804688 6.71984375 -9 6 C-7.34385343 5.61781233 -5.67542976 5.28604898 -4 5 C-3.67 5.33 -3.34 5.66 -3 6 C-2.01 4.02 -1.02 2.04 0 0 Z " fill="#EA722B" transform="translate(305,155)"/>
<path d="M0 0 C3.91621915 2.2194295 7.33686338 4.7681849 10.8125 7.625 C12.27623047 8.81996094 12.27623047 8.81996094 13.76953125 10.0390625 C14.50558594 10.68617188 15.24164063 11.33328125 16 12 C16 12.33 16 12.66 16 13 C13.79142945 12.85780436 11.58315013 12.71108153 9.375 12.5625 C8.14523437 12.48128906 6.91546875 12.40007812 5.6484375 12.31640625 C2.38467612 12.03336056 -0.77943859 11.58961047 -4 11 C-3.01 10.34 -2.02 9.68 -1 9 C-0.6743294 7.05430321 -0.6743294 7.05430321 -0.875 4.9375 C-0.936875 2.9884375 -0.936875 2.9884375 -1 1 C-0.67 0.67 -0.34 0.34 0 0 Z " fill="#EC7728" transform="translate(402,321)"/>
<path d="M0 0 C4.875 4.625 4.875 4.625 6 8 C9.51190809 9.22969878 9.51190809 9.22969878 13 10 C12.62875 10.7425 12.2575 11.485 11.875 12.25 C10.70484137 14.94283647 10.70484137 14.94283647 11.875 17.3125 C12.24625 17.869375 12.6175 18.42625 13 19 C11.6875 20.5 11.6875 20.5 10 22 C9.01 22 8.02 22 7 22 C6.731875 22.5775 6.46375 23.155 6.1875 23.75 C4.93472464 26.12367963 3.86872235 28.06206571 2 30 C-0.6875 30.25 -0.6875 30.25 -3 30 C-2.2575 29.484375 -1.515 28.96875 -0.75 28.4375 C2.93642272 25.16998895 5.45698116 21.83576503 6.38671875 16.98046875 C6.67153701 11.84391872 5.35289667 8.79406728 2 5 C-1.10014929 3.11431306 -1.10014929 3.11431306 -4 2 C-2.68 1.34 -1.36 0.68 0 0 Z " fill="#F4701D" transform="translate(331,232)"/>
<path d="M0 0 C0.95132812 0.04125 1.90265625 0.0825 2.8828125 0.125 C1.46762692 3.1257008 0.05038817 6.12542767 -1.3671875 9.125 C-1.76292969 9.96417969 -2.15867187 10.80335938 -2.56640625 11.66796875 C-5.01892038 16.85443306 -7.53251408 22.00307837 -10.1171875 27.125 C-10.4471875 27.125 -10.7771875 27.125 -11.1171875 27.125 C-11.15973106 25.12545254 -11.15799533 23.12458364 -11.1171875 21.125 C-10.7871875 20.795 -10.4571875 20.465 -10.1171875 20.125 C-10.7771875 19.795 -11.4371875 19.465 -12.1171875 19.125 C-11.6221875 17.64 -11.6221875 17.64 -11.1171875 16.125 C-10.2715625 15.733125 -9.4259375 15.34125 -8.5546875 14.9375 C-7.348125 14.0403125 -7.348125 14.0403125 -6.1171875 13.125 C-6.05278887 11.12864258 -5.99946507 9.12673616 -6.1171875 7.1328125 C-6.1171875 2.55214866 -4.56595536 0.18309595 0 0 Z " fill="#E66E30" transform="translate(318.1171875,127.875)"/>
<path d="M0 0 C1.76630091 4.71013576 0.86024137 9.97590266 -1.0625 14.5 C-1.371875 14.995 -1.68125 15.49 -2 16 C-1.67 15.67 -1.34 15.34 -1 15 C-0.34 15.66 0.32 16.32 1 17 C0.625 20.625 0.625 20.625 0 24 C-1.65 24.33 -3.3 24.66 -5 25 C-5.12117187 26.13179688 -5.24234375 27.26359375 -5.3671875 28.4296875 C-5.53600276 29.91151031 -5.70529855 31.39327842 -5.875 32.875 C-5.95363281 33.62136719 -6.03226563 34.36773437 -6.11328125 35.13671875 C-6.7734375 40.7734375 -6.7734375 40.7734375 -9 43 C-8.50343709 34.66551179 -7.00698388 26.79651072 -5.0625 18.6875 C-4.79759766 17.54732422 -4.53269531 16.40714844 -4.25976562 15.23242188 C-3.04308614 10.06077932 -1.73384885 5.02625019 0 0 Z " fill="#ED8B25" transform="translate(166,261)"/>
<path d="M0 0 C2.64 0 5.28 0 8 0 C7.83242187 0.64066406 7.66484375 1.28132813 7.4921875 1.94140625 C6.12636279 7.74183902 5.81996432 11.42879771 8 17 C8.99 17 9.98 17 11 17 C11.103125 17.5775 11.20625 18.155 11.3125 18.75 C11.87824003 21.10641749 11.87824003 21.10641749 13.625 23 C14.07875 23.66 14.5325 24.32 15 25 C14.5859375 27.125 14.5859375 27.125 14 29 C0 8.65577342 0 8.65577342 0 0 Z " fill="#EDA025" transform="translate(81,410)"/>
<path d="M0 0 C1.08734241 3.26202724 0.92452143 3.84488889 0.0625 7 C-1.75709874 15.1820883 -1.15395485 23.66933207 -1 32 C-1.66 32 -2.32 32 -3 32 C-3.33 31.34 -3.66 30.68 -4 30 C-4.66 30 -5.32 30 -6 30 C-5.67 28.35 -5.34 26.7 -5 25 C-4.67 25 -4.34 25 -4 25 C-3.67 20.05 -3.34 15.1 -3 10 C-4.65 10 -6.3 10 -8 10 C-7.67 7.69 -7.34 5.38 -7 3 C-6.21625 3.061875 -5.4325 3.12375 -4.625 3.1875 C-3.75875 3.125625 -2.8925 3.06375 -2 3 C-1.34 2.01 -0.68 1.02 0 0 Z " fill="#F17620" transform="translate(280,214)"/>
<path d="M0 0 C0.83681551 2.36400381 1.21168789 3.51556041 0.1875 5.859375 C-0.204375 6.48328125 -0.59625 7.1071875 -1 7.75 C-3.46788844 12.24628991 -3.05839331 15.06083121 -2 20 C-2.66 20.33 -3.32 20.66 -4 21 C-4.65772428 24.02934491 -4.65772428 24.02934491 -5 27 C-4.01 27 -3.02 27 -2 27 C-1.67 27.99 -1.34 28.98 -1 30 C0.49985609 31.66710346 0.49985609 31.66710346 2 33 C-1 33 -1 33 -3.625 30.6875 C-7.0750335 26.78351473 -7.33802741 23.6037961 -7.2890625 18.609375 C-6.53986188 11.84632071 -3.57949024 5.70256898 0 0 Z " fill="#F27320" transform="translate(298,197)"/>
<path d="M0 0 C0.62342285 0.11069824 1.2468457 0.22139648 1.88916016 0.33544922 C13.57017443 2.4038949 25.23674214 4.45059342 37 6 C37 6.33 37 6.66 37 7 C32.71 7 28.42 7 24 7 C23.67 7.66 23.34 8.32 23 9 C22.67 8.34 22.34 7.68 22 7 C19.97863961 6.4934364 19.97863961 6.4934364 17.625 6.3125 C16.83351563 6.22613281 16.04203125 6.13976562 15.2265625 6.05078125 C12.82523274 5.87060211 12.82523274 5.87060211 10 7 C7.51953125 5.8203125 7.51953125 5.8203125 4.8125 4.125 C3.91144531 3.57070313 3.01039063 3.01640625 2.08203125 2.4453125 C1.39496094 1.96835937 0.70789063 1.49140625 0 1 C0 0.67 0 0.34 0 0 Z " fill="#E5922D" transform="translate(286,470)"/>
<path d="M0 0 C1.65 1.65 3.3 3.3 5 5 C4.01 5.495 4.01 5.495 3 6 C1.95191959 7.97522846 0.9479589 9.97481509 0 12 C-1.65 12 -3.3 12 -5 12 C-5 12.66 -5 13.32 -5 14 C-5.99 14 -6.98 14 -8 14 C-8.33 15.65 -8.66 17.3 -9 19 C-9.66 19 -10.32 19 -11 19 C-9.60318936 13.9499923 -7.40056078 10.30405582 -4.375 6.125 C-3.95476562 5.53203125 -3.53453125 4.9390625 -3.1015625 4.328125 C-2.07434578 2.88068326 -1.0380937 1.43966081 0 0 Z " fill="#F38F18" transform="translate(107,279)"/>
<path d="M0 0 C0.66 0 1.32 0 2 0 C2.8655047 2.26708325 3.71759315 4.53775079 4.5625 6.8125 C4.80935547 7.45509766 5.05621094 8.09769531 5.31054688 8.75976562 C7.11328125 13.66015625 7.11328125 13.66015625 6 17 C5.01 16.67 4.02 16.34 3 16 C3 19.3 3 22.6 3 26 C2.34 26 1.68 26 1 26 C0.67 17.42 0.34 8.84 0 0 Z " fill="#F0971B" transform="translate(73,341)"/>
<path d="M0 0 C0.33 0 0.66 0 1 0 C1.19335938 1.19496094 1.38671875 2.38992188 1.5859375 3.62109375 C3.50284489 15.36669563 3.50284489 15.36669563 6 27 C5.34 27 4.68 27 4 27 C3.7525 26.236875 3.505 25.47375 3.25 24.6875 C1.89004442 21.7635955 0.68414174 20.69995644 -2 19 C-1.814375 17.989375 -1.62875 16.97875 -1.4375 15.9375 C-0.83123561 12.04482222 -0.83123561 12.04482222 -1.5625 8.375 C-2.02679825 4.79327067 -1.62857021 3.16134217 0 0 Z " fill="#F49919" transform="translate(131,411)"/>
<path d="M0 0 C0.99 0 1.98 0 3 0 C2.29937517 4.56736441 0.68729793 8.5699505 -1.0625 12.8125 C-1.34416016 13.50537109 -1.62582031 14.19824219 -1.91601562 14.91210938 C-2.60674973 16.60967624 -3.30283728 18.30506312 -4 20 C-4.33 20 -4.66 20 -5 20 C-4.979375 19.05125 -4.95875 18.1025 -4.9375 17.125 C-4.77448174 14.09333717 -4.77448174 14.09333717 -6 12 C-5.39421747 9.98072489 -4.73080266 7.97746603 -4 6 C-3.34 6 -2.68 6 -2 6 C-1.855625 5.195625 -1.71125 4.39125 -1.5625 3.5625 C-1 1 -1 1 0 0 Z " fill="#EA692D" transform="translate(326,107)"/>
<path d="M0 0 C1.1328125 3.6953125 1.1328125 3.6953125 -0.0625 6.4375 C-2.37263247 9.4928365 -5.00295434 11.62733885 -8 14 C-8.5775 14.598125 -9.155 15.19625 -9.75 15.8125 C-11 17 -11 17 -13 17 C-12.69029106 11.61506072 -9.64569893 9.17532596 -5.9375 5.6875 C-5.08575195 4.86282227 -5.08575195 4.86282227 -4.21679688 4.02148438 C-2.82009075 2.67172635 -1.41121163 1.33458475 0 0 Z " fill="#E87D2B" transform="translate(213,189)"/>
<path d="M0 0 C2.08548902 2.51696951 3.91932857 4.84567205 5.4375 7.75 C6.8298915 10.25222911 6.8298915 10.25222911 9.6875 10.8125 C10.450625 10.874375 11.21375 10.93625 12 11 C12.33 10.01 12.66 9.02 13 8 C13.66 8 14.32 8 15 8 C15.33 8.99 15.66 9.98 16 11 C18.09719872 12.02281518 18.09719872 12.02281518 20.5625 12.6875 C21.38878906 12.93886719 22.21507812 13.19023438 23.06640625 13.44921875 C23.70449219 13.63097656 24.34257812 13.81273438 25 14 C25 14.33 25 14.66 25 15 C10.76056338 15.57042254 10.76056338 15.57042254 6 12 C2.15539941 8.15539941 0.38984352 5.45780927 0 0 Z " fill="#EF6B2E" transform="translate(260,64)"/>
<path d="M0 0 C0.66 0 1.32 0 2 0 C-0.33333333 7 -2.66666667 14 -5 21 C-7 19 -7 19 -7.1953125 16.1796875 C-7.17210937 15.08914062 -7.14890625 13.99859375 -7.125 12.875 C-7.10695313 11.77929688 -7.08890625 10.68359375 -7.0703125 9.5546875 C-7.04710937 8.71164063 -7.02390625 7.86859375 -7 7 C-5.35 7 -3.7 7 -2 7 C-2.33 5.35 -2.66 3.7 -3 2 C-2.01 2 -1.02 2 0 2 C0 1.34 0 0.68 0 0 Z " fill="#EF7427" transform="translate(287,192)"/>
<path d="M0 0 C0.66 0 1.32 0 2 0 C0.16640953 3.80088025 -1.91385108 7.45912237 -4 11.125 C-4.35578125 11.75792969 -4.7115625 12.39085937 -5.078125 13.04296875 C-6.55429919 15.63728981 -7.87916966 17.87916966 -10 20 C-10.99 19.34 -11.98 18.68 -13 18 C-13.1875 14.875 -13.1875 14.875 -13 12 C-9.535 11.505 -9.535 11.505 -6 11 C-5.7525 10.113125 -5.505 9.22625 -5.25 8.3125 C-3.95035375 4.86843744 -2.51270773 2.66975197 0 0 Z " fill="#E16438" transform="translate(301,21)"/>
<path d="M0 0 C0.12375 0.639375 0.2475 1.27875 0.375 1.9375 C0.58125 2.618125 0.7875 3.29875 1 4 C1.66 4.33 2.32 4.66 3 5 C2.34 5 1.68 5 1 5 C0.9175 5.78375 0.835 6.5675 0.75 7.375 C0 10 0 10 -2.0625 11.3125 C-2.701875 11.539375 -3.34125 11.76625 -4 12 C-4 13.65 -4 15.3 -4 17 C-5.65 17 -7.3 17 -9 17 C-9.99 19.475 -9.99 19.475 -11 22 C-11.66 21.67 -12.32 21.34 -13 21 C-12.64172119 20.43490723 -12.28344238 19.86981445 -11.91430664 19.28759766 C-10.29605857 16.73401743 -8.67926231 14.17952115 -7.0625 11.625 C-6.21655273 10.29082031 -6.21655273 10.29082031 -5.35351562 8.9296875 C-4.81533203 8.07890625 -4.27714844 7.228125 -3.72265625 6.3515625 C-3.22515869 5.56604004 -2.72766113 4.78051758 -2.21508789 3.97119141 C-0.97703665 2.02794308 -0.97703665 2.02794308 0 0 Z " fill="#ED8A26" transform="translate(132,240)"/>
<path d="M0 0 C1.32 0.33 2.64 0.66 4 1 C4 1.66 4 2.32 4 3 C4.8971875 3.433125 4.8971875 3.433125 5.8125 3.875 C8 5 8 5 11 7 C13.64632287 6.6878236 13.64632287 6.6878236 16 6 C16 6.66 16 7.32 16 8 C16.99 7.67 17.98 7.34 19 7 C19.33 9.64 19.66 12.28 20 15 C16.33509512 13.69248561 13.59072086 12.12195206 10.5625 9.6875 C9.79164063 9.07003906 9.02078125 8.45257813 8.2265625 7.81640625 C7.49179688 7.21699219 6.75703125 6.61757813 6 6 C5.36835938 5.49339844 4.73671875 4.98679687 4.0859375 4.46484375 C2.70019525 3.3385177 1.34604731 2.17347714 0 1 C0 0.67 0 0.34 0 0 Z " fill="#EF9921" transform="translate(157,412)"/>
<path d="M0 0 C5.56664924 1.66086912 10.65786353 4.11071736 15.875 6.625 C16.75414062 7.04523438 17.63328125 7.46546875 18.5390625 7.8984375 C20.69422878 8.9291692 22.84779922 9.96309426 25 11 C21.3986159 12.20046137 20.85032966 11.73287623 17.5625 10.125 C14.73270291 8.75558889 12.11809215 7.51637195 9 7 C8.01 7.495 8.01 7.495 7 8 C3.72736399 6.5273138 2.27985952 5.57304568 0.6875 2.3125 C0.460625 1.549375 0.23375 0.78625 0 0 Z " fill="#EC7128" transform="translate(343,216)"/>
<path d="M0 0 C1.60294922 0.01353516 1.60294922 0.01353516 3.23828125 0.02734375 C4.04652344 0.03894531 4.85476563 0.05054688 5.6875 0.0625 C5.0275 1.3825 4.3675 2.7025 3.6875 4.0625 C3.3575 3.4025 3.0275 2.7425 2.6875 2.0625 C-6.18541397 2.44427226 -12.14147566 3.11824753 -19.5 8.3125 C-20.428125 8.89 -21.35625 9.4675 -22.3125 10.0625 C-23.3025 9.7325 -24.2925 9.4025 -25.3125 9.0625 C-18.00599371 2.46307496 -9.70412696 -0.10663876 0 0 Z " fill="#DA743D" transform="translate(338.3125,172.9375)"/>
<path d="M0 0 C0.66 0.33 1.32 0.66 2 1 C2 1.66 2 2.32 2 3 C1.01 3.495 1.01 3.495 0 4 C-0.144375 4.639375 -0.28875 5.27875 -0.4375 5.9375 C-1 8 -1 8 -4 10 C-4.99 10.33 -5.98 10.66 -7 11 C-7 11.66 -7 12.32 -7 13 C-6.34 13.33 -5.68 13.66 -5 14 C-5.66 14 -6.32 14 -7 14 C-7 14.66 -7 15.32 -7 16 C-9.64 16.66 -12.28 17.32 -15 18 C-15.33 17.01 -15.66 16.02 -16 15 C-15.43152344 14.67128906 -14.86304688 14.34257812 -14.27734375 14.00390625 C-8.11336028 10.20672778 -4.10256632 5.93618922 0 0 Z " fill="#F18A26" transform="translate(356,456)"/>
<path d="M0 0 C0 3.86695678 -1.41909971 6.5088452 -3 10 C-4.32 10 -5.64 10 -7 10 C-7.33 10.99 -7.66 11.98 -8 13 C-8.99 13.33 -9.98 13.66 -11 14 C-11.33 14.66 -11.66 15.32 -12 16 C-11.34 16.33 -10.68 16.66 -10 17 C-13.01031744 17.93423645 -13.86650268 18.04449911 -17 17 C-11.39 11.39 -5.78 5.78 0 0 Z " fill="#E17D34" transform="translate(231,171)"/>
<path d="M0 0 C0.66 0.99 1.32 1.98 2 3 C1.04882866 4.1725131 0.08882991 5.33787015 -0.875 6.5 C-1.67550781 7.47453125 -1.67550781 7.47453125 -2.4921875 8.46875 C-2.98976563 8.9740625 -3.48734375 9.479375 -4 10 C-4.66 10 -5.32 10 -6 10 C-5.67 8.68 -5.34 7.36 -5 6 C-6.98 6.66 -8.96 7.32 -11 8 C-11.33 7.01 -11.66 6.02 -12 5 C-10.68 4.67 -9.36 4.34 -8 4 C-8 3.34 -8 2.68 -8 2 C-6.2984375 1.7834375 -6.2984375 1.7834375 -4.5625 1.5625 C-1.19222799 1.38828522 -1.19222799 1.38828522 0 0 Z " fill="#F25E23" transform="translate(302,16)"/>
<path d="M0 0 C4.8274799 1.41292095 8.7162359 3.42974154 13 6 C10 7 10 7 7 6 C6.67 6.66 6.34 7.32 6 8 C4.02 8 2.04 8 0 8 C-0.79953138 4.71303767 -1.09658936 3.28976808 0 0 Z " fill="#F5731B" transform="translate(385,311)"/>
<path d="M0 0 C0.33 0.99 0.66 1.98 1 3 C0.34 3 -0.32 3 -1 3 C-1.2475 3.94875 -1.495 4.8975 -1.75 5.875 C-3 9 -3 9 -4.9375 10.125 C-5.618125 10.41375 -6.29875 10.7025 -7 11 C-7.515625 11.70125 -8.03125 12.4025 -8.5625 13.125 C-9.036875 13.74375 -9.51125 14.3625 -10 15 C-10.99 15 -11.98 15 -13 15 C-11.58884686 11.87729974 -9.889376 9.50346319 -7.625 6.9375 C-7.03976562 6.26589844 -6.45453125 5.59429687 -5.8515625 4.90234375 C-4.0239296 3.02458589 -2.13635135 1.51050393 0 0 Z " fill="#E8752D" transform="translate(312,182)"/>
<path d="M0 0 C0.66 0 1.32 0 2 0 C0.56353038 4.50968588 -1.13528549 8.8380534 -3 13.1875 C-3.515625 14.39792969 -4.03125 15.60835938 -4.5625 16.85546875 C-6 20 -6 20 -8 23 C-8 20.69 -8 18.38 -8 16 C-7.34 16 -6.68 16 -6 16 C-6 14.35 -6 12.7 -6 11 C-5.34 11 -4.68 11 -4 11 C-4.226875 10.2575 -4.45375 9.515 -4.6875 8.75 C-5 6 -5 6 -3.6875 3.6875 C-2.8521875 2.8521875 -2.8521875 2.8521875 -2 2 C-1.34 2 -0.68 2 0 2 C0 1.34 0 0.68 0 0 Z " fill="#E78D2A" transform="translate(207,313)"/>
<path d="M0 0 C0.928125 0.103125 1.85625 0.20625 2.8125 0.3125 C-0.32097921 8.82015864 -0.32097921 8.82015864 -3.9375 10.875 C-4.68 11.019375 -5.4225 11.16375 -6.1875 11.3125 C-6.42310076 7.93555582 -6.30393983 5.61006845 -5.0625 2.4375 C-3.1875 0.3125 -3.1875 0.3125 0 0 Z " fill="#F16920" transform="translate(318.1875,127.6875)"/>
<path d="M0 0 C0.5534764 2.07553648 1 3.84365964 1 6 C0.38125 6.268125 -0.2375 6.53625 -0.875 6.8125 C-3.2995233 7.95556848 -3.2995233 7.95556848 -5 11 C-7.375 12.0625 -7.375 12.0625 -10 13 C-11.33908394 13.65503926 -12.67350906 14.3198206 -14 15 C-9.59156563 9.70987876 -4.92440206 4.81191572 0 0 Z " fill="#E27937" transform="translate(249,153)"/>
<path d="M0 0 C-0.66 2.64 -1.32 5.28 -2 8 C-5.3 8.33 -8.6 8.66 -12 9 C-5 0 -5 0 0 0 Z " fill="#EF781F" transform="translate(353,311)"/>
<path d="M0 0 C0.66 1.32 1.32 2.64 2 4 C1.01 4.33 0.02 4.66 -1 5 C-1 5.99 -1 6.98 -1 8 C-0.34 8.33 0.32 8.66 1 9 C0.071875 9.5775 -0.85625 10.155 -1.8125 10.75 C-4.63145447 12.73985022 -6.04562867 14.26388013 -8 17 C-8.66 17 -9.32 17 -10 17 C-8.51364884 12.78345644 -6.38750841 9.37521395 -3.875 5.6875 C-3.15054688 4.61886719 -2.42609375 3.55023438 -1.6796875 2.44921875 C-0.84824219 1.23685547 -0.84824219 1.23685547 0 0 Z " fill="#EE8F22" transform="translate(118,262)"/>
<path d="M0 0 C0.4125 0.556875 0.825 1.11375 1.25 1.6875 C1.8275 2.450625 2.405 3.21375 3 4 C3.804375 5.2065625 3.804375 5.2065625 4.625 6.4375 C8.83082068 10.97535915 14.52125683 13.2730801 20 16 C13.74444798 15.77658743 10.60456836 14.4535133 5.859375 10.375 C3.87287926 8.90599475 2.37476013 8.54609463 0 8 C-1.375 6.1875 -1.375 6.1875 -2 4 C-1.125 1.75 -1.125 1.75 0 0 Z " fill="#E47D31" transform="translate(279,246)"/>
<path d="M0 0 C5.26371362 -0.50130606 7.9090934 0.68831371 12 4 C12 4.66 12 5.32 12 6 C9.74888027 5.71710528 7.49912314 5.42335307 5.25 5.125 C3.37054688 4.88136719 3.37054688 4.88136719 1.453125 4.6328125 C-1.48616408 4.0941645 -3.47107147 3.51991159 -6 2 C-4.02 2 -2.04 2 0 2 C0 1.34 0 0.68 0 0 Z " fill="#EF8C22" transform="translate(308,449)"/>
<path d="M0 0 C1.32 0.33 2.64 0.66 4 1 C4.33 3.31 4.66 5.62 5 8 C6.65 7.34 8.3 6.68 10 6 C10.33 6.99 10.66 7.98 11 9 C10.01 9.66 9.02 10.32 8 11 C7.67 11.66 7.34 12.32 7 13 C5.81836949 11.78521149 4.65517165 10.55247592 3.5 9.3125 C2.8503125 8.62800781 2.200625 7.94351562 1.53125 7.23828125 C-0.27813784 4.59343628 -0.3077917 3.13837611 0 0 Z " fill="#F28E1D" transform="translate(252,416)"/>
<path d="M0 0 C0.78375 0.04125 1.5675 0.0825 2.375 0.125 C3.035 2.105 3.695 4.085 4.375 6.125 C3.055 6.455 1.735 6.785 0.375 7.125 C0.375 6.465 0.375 5.805 0.375 5.125 C-0.553125 5.5890625 -0.553125 5.5890625 -1.5 6.0625 C-2.875 6.75 -4.25 7.4375 -5.625 8.125 C-4.59375 0.21875 -4.59375 0.21875 0 0 Z " fill="#F06026" transform="translate(283.625,24.875)"/>
<path d="M0 0 C1 2 1 2 0.625 5.4375 C0.4772654 11.63098903 4.59130649 16.14445097 8 21 C8.33 21.66 8.66 22.32 9 23 C7.125 22.875 7.125 22.875 5 22 C3.75 18.9375 3.75 18.9375 3 16 C1.35 15.67 -0.3 15.34 -2 15 C-1.835 14.44699219 -1.67 13.89398438 -1.5 13.32421875 C-0.94440827 10.74158531 -0.93765418 8.45050771 -1 5.8125 C-1.037569 4.20877332 -1.04673183 2.60348584 -1 1 C-0.67 0.67 -0.34 0.34 0 0 Z " fill="#E68232" transform="translate(360,336)"/>
<path d="M0 0 C2.31 0 4.62 0 7 0 C7 2.31 7 4.62 7 7 C5.68 7.33 4.36 7.66 3 8 C0 2.25 0 2.25 0 0 Z " fill="#F78B12" transform="translate(241,402)"/>
<path d="M0 0 C0.84191782 2.9248633 1.11819313 5.50741656 1.09765625 8.546875 C1.09282227 9.81337891 1.09282227 9.81337891 1.08789062 11.10546875 C1.07951172 11.97816406 1.07113281 12.85085937 1.0625 13.75 C1.05798828 14.63816406 1.05347656 15.52632812 1.04882812 16.44140625 C1.037074 18.62767329 1.02064249 20.81380179 1 23 C0.34 23 -0.32 23 -1 23 C-1.33 22.34 -1.66 21.68 -2 21 C-2.66 21 -3.32 21 -4 21 C-3.67 19.35 -3.34 17.7 -3 16 C-2.67 16 -2.34 16 -2 16 C-1.93941406 14.92878906 -1.87882812 13.85757813 -1.81640625 12.75390625 C-1.73201463 11.35675609 -1.64736594 9.95962143 -1.5625 8.5625 C-1.52318359 7.85544922 -1.48386719 7.14839844 -1.44335938 6.41992188 C-1.11328125 1.11328125 -1.11328125 1.11328125 0 0 Z " fill="#E77D34" transform="translate(278,223)"/>
<path d="M0 0 C0.33 0 0.66 0 1 0 C1 4.95 1 9.9 1 15 C1.99 15 2.98 15 4 15 C4.33 15.99 4.66 16.98 5 18 C6.49985609 19.66710346 6.49985609 19.66710346 8 21 C5 21 5 21 2.375 18.6875 C-0.64022784 15.27553166 -1.13984643 12.96446612 -1.125 8.5625 C-1.12757813 7.80066406 -1.13015625 7.03882813 -1.1328125 6.25390625 C-1.00276015 4.04684141 -0.60856199 2.12030724 0 0 Z " fill="#DF7A38" transform="translate(292,209)"/>
<path d="M0 0 C0 3.39593478 -0.52165948 4.06619881 -2.5 6.6875 C-2.9640625 7.31011719 -3.428125 7.93273437 -3.90625 8.57421875 C-4.2671875 9.04472656 -4.628125 9.51523438 -5 10 C-5.33 9.01 -5.66 8.02 -6 7 C-6.99 7 -7.98 7 -9 7 C-9 7.66 -9 8.32 -9 9 C-10.65 9.33 -12.3 9.66 -14 10 C-11.16667533 6.95483798 -8.34499689 4.83131399 -4.75 2.75 C-3.85796875 2.22921875 -2.9659375 1.7084375 -2.046875 1.171875 C-1.03367187 0.59179688 -1.03367187 0.59179688 0 0 Z " fill="#DD653B" transform="translate(318,0)"/>
<path d="M0 0 C0 3.20395416 -0.74335022 5.09399739 -2 8 C-2.66 8 -3.32 8 -4 8 C-4 8.99 -4 9.98 -4 11 C-4.66 11 -5.32 11 -6 11 C-6.268125 11.969375 -6.53625 12.93875 -6.8125 13.9375 C-7.204375 14.948125 -7.59625 15.95875 -8 17 C-8.99 17.33 -9.98 17.66 -11 18 C-9.5810861 14.10508136 -7.74229459 10.79470749 -5.5 7.3125 C-4.8915625 6.35988281 -4.283125 5.40726563 -3.65625 4.42578125 C-2 2 -2 2 0 0 Z " fill="#E98D29" transform="translate(191,213)"/>
<path d="M0 0 C2.01822917 0.29296875 4.03645833 0.5859375 6.0546875 0.87890625 C8.08140667 1.1684297 8.08140667 1.1684297 10 0 C10 1.98 10 3.96 10 6 C11.32 6.33 12.64 6.66 14 7 C14 7.66 14 8.32 14 9 C10.40241608 7.67726488 7.36262865 6.0805802 4.1875 3.9375 C3.39730469 3.41027344 2.60710937 2.88304687 1.79296875 2.33984375 C1.20128906 1.89769531 0.60960938 1.45554687 0 1 C0 0.67 0 0.34 0 0 Z " fill="#EFA01F" transform="translate(126,466)"/>
<path d="M0 0 C0.33 0.66 0.66 1.32 1 2 C1.825 2.309375 2.65 2.61875 3.5 2.9375 C4.325 3.288125 5.15 3.63875 6 4 C6.33 4.99 6.66 5.98 7 7 C7.66 7 8.32 7 9 7 C9 7.66 9 8.32 9 9 C9.99 9 10.98 9 12 9 C12 9.66 12 10.32 12 11 C8.10993227 9.61219205 5.03441292 7.7847773 1.6875 5.375 C0.80449219 4.74335938 -0.07851563 4.11171875 -0.98828125 3.4609375 C-1.65214844 2.97882813 -2.31601562 2.49671875 -3 2 C-2.01 1.34 -1.02 0.68 0 0 Z " fill="#EA8F29" transform="translate(268,432)"/>
<path d="M0 0 C2.62901288 1.52206009 4.84365964 2.84365964 7 5 C7 5.99 7 6.98 7 8 C4 9 4 9 1 8 C-0.1875 4.4375 -0.1875 4.4375 -1 1 C-0.67 0.67 -0.34 0.34 0 0 Z " fill="#EE7425" transform="translate(402,321)"/>
<path d="M0 0 C-0.33 0.99 -0.66 1.98 -1 3 C-2.32 3 -3.64 3 -5 3 C-5 3.66 -5 4.32 -5 5 C-4.01 4.67 -3.02 4.34 -2 4 C-1.67 4.66 -1.34 5.32 -1 6 C-3.31 6.33 -5.62 6.66 -8 7 C-8 6.34 -8 5.68 -8 5 C-10.31 5 -12.62 5 -15 5 C-14.67 4.34 -14.34 3.68 -14 3 C-11.34765625 2.1484375 -11.34765625 2.1484375 -8.0625 1.375 C-6.44021484 0.98441406 -6.44021484 0.98441406 -4.78515625 0.5859375 C-2 0 -2 0 0 0 Z " fill="#EE8D25" transform="translate(340,472)"/>
<path d="M0 0 C0.33 0.66 0.66 1.32 1 2 C2.32 2 3.64 2 5 2 C4.67 3.98 4.34 5.96 4 8 C3.34 8 2.68 8 2 8 C2 7.34 2 6.68 2 6 C-3.94 6.495 -3.94 6.495 -10 7 C-7.23776722 4.23776722 -4.79293383 4.42143709 -1 4 C-0.67 2.68 -0.34 1.36 0 0 Z " fill="#EE8826" transform="translate(355,448)"/>
<path d="M0 0 C0.66 2.31 1.32 4.62 2 7 C1.05125 6.979375 0.1025 6.95875 -0.875 6.9375 C-3.90666283 6.77448174 -3.90666283 6.77448174 -6 8 C-5.67 5.69 -5.34 3.38 -5 1 C-2 0 -2 0 0 0 Z " fill="#F6671F" transform="translate(295,104)"/>
<path d="M0 0 C7.48291572 6.15034169 7.48291572 6.15034169 10 10 C5.1725201 8.58707905 1.2837641 6.57025846 -3 4 C-2.01 3.67 -1.02 3.34 0 3 C0 2.01 0 1.02 0 0 Z " fill="#E59E36" transform="translate(174,490)"/>
<path d="M0 0 C3.45101522 4.24740335 6.73279209 8.61105071 10 13 C9.67 13.66 9.34 14.32 9 15 C7.68 14.67 6.36 14.34 5 14 C5 12.35 5 10.7 5 9 C4.34 9 3.68 9 3 9 C0.56839395 5.63316085 0 4.26649636 0 0 Z " fill="#ED9C1E" transform="translate(144,455)"/>
<path d="M0 0 C0.66 0 1.32 0 2 0 C2.66 0.99 3.32 1.98 4 3 C4.99 2.34 5.98 1.68 7 1 C7 2.98 7 4.96 7 7 C7.66 7.33 8.32 7.66 9 8 C9 9.66666667 9 11.33333333 9 13 C7.4941255 11.21326795 5.9954515 9.42046492 4.5 7.625 C3.6646875 6.62726563 2.829375 5.62953125 1.96875 4.6015625 C0 2 0 2 0 0 Z " fill="#ED9927" transform="translate(135,386)"/>
<path d="M0 0 C-0.33 1.65 -0.66 3.3 -1 5 C-2.65 4.67 -4.3 4.34 -6 4 C-6 3.34 -6 2.68 -6 2 C-6.66 2 -7.32 2 -8 2 C-8 1.01 -8 0.02 -8 -1 C-4.37673261 -2.2077558 -3.35853631 -1.54311128 0 0 Z " fill="#F5731E" transform="translate(305,226)"/>
<path d="M0 0 C1.9375 0.375 1.9375 0.375 4 1 C4.33 1.66 4.66 2.32 5 3 C7.32506659 3.39156228 7.32506659 3.39156228 10 3.5 C12.75 3.65625 12.75 3.65625 15 4 C15.33 4.66 15.66 5.32 16 6 C9.42208127 5.58955515 3.25948114 5.13391403 -3 3 C-2.01 2.67 -1.02 2.34 0 2 C0 1.34 0 0.68 0 0 Z " fill="#EE902B" transform="translate(331,491)"/>
<path d="M0 0 C0.66 0 1.32 0 2 0 C3.25664978 2.90600261 4 4.79604584 4 8 C3.34 8 2.68 8 2 8 C2 13.94 2 19.88 2 26 C1.67 26 1.34 26 1 26 C0.67 17.42 0.34 8.84 0 0 Z " fill="#E49F3B" transform="translate(73,341)"/>
<path d="M0 0 C1.69433918 3.0469629 2.49467112 5.82821466 3.125 9.25 C3.29257813 10.14203125 3.46015625 11.0340625 3.6328125 11.953125 C3.75398437 12.62859375 3.87515625 13.3040625 4 14 C-0.6875 10.38671875 -0.6875 10.38671875 -2 9 C-2 5.61976483 -1.12544378 3.16531063 0 0 Z " fill="#EF8E24" transform="translate(149,312)"/>
<path d="M0 0 C4.875 4.625 4.875 4.625 6 8 C6.66 8 7.32 8 8 8 C8 11.63 8 15.26 8 19 C7.67 19 7.34 19 7 19 C6.90203125 18.33613281 6.8040625 17.67226562 6.703125 16.98828125 C5.80747582 11.69931843 5.1141297 7.76149001 1 4 C-1.61818456 2.66701026 -1.61818456 2.66701026 -4 2 C-2.68 1.34 -1.36 0.68 0 0 Z " fill="#E47834" transform="translate(331,232)"/>
<path d="M0 0 C2.64 0 5.28 0 8 0 C7.34 2.31 6.68 4.62 6 7 C5.34 6.34 4.68 5.68 4 5 C3.01 5 2.02 5 1 5 C0.67 3.35 0.34 1.7 0 0 Z " fill="#F69D12" transform="translate(81,410)"/>
<path d="M0 0 C3.25524265 3.02272532 5.61820737 6.25718301 8 10 C7.67 10.66 7.34 11.32 7 12 C6.34 11.67 5.68 11.34 5 11 C5 10.01 5 9.02 5 8 C4.071875 7.7834375 4.071875 7.7834375 3.125 7.5625 C1 7 1 7 -1 6 C-0.67 4.02 -0.34 2.04 0 0 Z " fill="#E87E2A" transform="translate(379,372)"/>
<path d="M0 0 C1.12588014 0.95729916 2.2506715 1.91587895 3.375 2.875 C4.00148438 3.40867187 4.62796875 3.94234375 5.2734375 4.4921875 C6.55836651 5.61432007 7.79371975 6.79371975 9 8 C5.6875 8.3125 5.6875 8.3125 2 8 C0 5.6875 0 5.6875 -1 3 C-0.67 2.01 -0.34 1.02 0 0 Z " fill="#E27C34" transform="translate(409,326)"/>
<path d="M0 0 C0.66 0.33 1.32 0.66 2 1 C2.99 0.67 3.98 0.34 5 0 C3.7508258 3.45925163 2.32472205 6.14693203 0 9 C-0.66 8.34 -1.32 7.68 -2 7 C-2 3.89448334 -1.4606285 2.64738916 0 0 Z " fill="#EE8725" transform="translate(212,298)"/>
<path d="M0 0 C1 3 1 3 -0.4375 6.1875 C-1.2109375 7.5796875 -1.2109375 7.5796875 -2 9 C-2.66 8.34 -3.32 7.68 -4 7 C-6.57061311 6.35232207 -6.57061311 6.35232207 -9 6 C-6.11964908 3.75972706 -3.15133488 1.83827868 0 0 Z " fill="#E58735" transform="translate(321,351)"/>
<path d="M0 0 C2 1 2 1 2.65234375 2.703125 C3.07471626 5.49363104 2.86294405 7.94585553 2.5625 10.75 C2.40974609 12.22726562 2.40974609 12.22726562 2.25390625 13.734375 C2.12822266 14.85585938 2.12822266 14.85585938 2 16 C0.25054234 12.92952329 -0.36795239 10.38478525 -0.6875 6.875 C-0.81705078 5.57175781 -0.81705078 5.57175781 -0.94921875 4.2421875 C-1 2 -1 2 0 0 Z " fill="#EC8C26" transform="translate(228,352)"/>
<path d="M0 0 C2.97 0 5.94 0 9 0 C8.625 2.9375 8.625 2.9375 8 6 C7.01 6.495 7.01 6.495 6 7 C6 6.34 6 5.68 6 5 C5.34 5 4.68 5 4 5 C2.61767557 3.37373596 1.28062485 1.7074998 0 0 Z " fill="#FA8B13" transform="translate(271,434)"/>
<path d="M0 0 C0.33 1.32 0.66 2.64 1 4 C0.01 4.495 0.01 4.495 -1 5 C-2.13350534 7.01669827 -2.13350534 7.01669827 -3 9 C-4.65 9 -6.3 9 -8 9 C-7.04270084 7.87411986 -6.08412105 6.7493285 -5.125 5.625 C-4.59132812 4.99851563 -4.05765625 4.37203125 -3.5078125 3.7265625 C-2.38567993 2.44163349 -1.20628025 1.20628025 0 0 Z " fill="#E27634" transform="translate(258,144)"/>
<path d="M0 0 C0.89130413 2.6739124 1.47731534 5.23723823 2 8 C1.4225 7.814375 0.845 7.62875 0.25 7.4375 C-2.20692525 6.95976454 -3.64397534 7.24270636 -6 8 C-4.55746343 4.63408134 -2.66735273 2.48952921 0 0 Z " fill="#E8732F" transform="translate(270,131)"/>
<path d="M0 0 C2.06242617 -0.02717692 4.12495703 -0.0464758 6.1875 -0.0625 C7.33605469 -0.07410156 8.48460937 -0.08570313 9.66796875 -0.09765625 C12.59300586 -0.01192832 15.16316291 0.32150977 18 1 C18 1.33 18 1.66 18 2 C13.71 2 9.42 2 5 2 C4.67 2.66 4.34 3.32 4 4 C3.67 3.34 3.34 2.68 3 2 C2.01 1.34 1.02 0.68 0 0 Z " fill="#EE9727" transform="translate(305,475)"/>
<path d="M0 0 C1.20220203 3.53094302 0.79532349 6.12898982 0.0625 9.75 C-0.13214844 10.73484375 -0.32679688 11.7196875 -0.52734375 12.734375 C-0.68332031 13.48203125 -0.83929688 14.2296875 -1 15 C-1.33 15 -1.66 15 -2 15 C-2 11.7 -2 8.4 -2 5 C-2.66 5 -3.32 5 -4 5 C-3.6875 3.0625 -3.6875 3.0625 -3 1 C-2.01 0.67 -1.02 0.34 0 0 Z " fill="#ED862A" transform="translate(295,353)"/>
<path d="M0 0 C1 2 1 2 -0.21484375 5.6953125 C-0.78133585 7.17485658 -1.35591889 8.65132181 -1.9375 10.125 C-2.22818359 10.87910156 -2.51886719 11.63320312 -2.81835938 12.41015625 C-3.53874998 14.27608602 -4.26850404 16.1383958 -5 18 C-6.73490714 12.79527859 -4.21422809 8.2576055 -1.875 3.5625 C-1.25596718 2.37187848 -0.63309191 1.18320576 0 0 Z " fill="#E48A35" transform="translate(162,236)"/>
<path d="M0 0 C0.33 0 0.66 0 1 0 C2.40913826 5.63655304 1.73956036 8.44153116 -1.08984375 13.49609375 C-1.39019531 13.99238281 -1.69054687 14.48867188 -2 15 C-3.31534494 11.34142468 -2.65468309 8.91973519 -1.5625 5.25 C-1.27503906 4.26515625 -0.98757812 3.2803125 -0.69140625 2.265625 C-0.46324219 1.51796875 -0.23507813 0.7703125 0 0 Z " fill="#EE942A" transform="translate(88,311)"/>
<path d="M0 0 C-0.8353125 0.37125 -0.8353125 0.37125 -1.6875 0.75 C-4.13723043 1.97804447 -4.13723043 1.97804447 -6.5 4.0625 C-8.82767647 5.86644927 -10.1441791 6.57691542 -13 7 C-13.33 6.34 -13.66 5.68 -14 5 C-12.61217515 4.1533966 -11.21430603 3.32324661 -9.8125 2.5 C-9.03519531 2.0359375 -8.25789063 1.571875 -7.45703125 1.09375 C-4.75896614 -0.10729647 -2.9193018 -0.20741043 0 0 Z " fill="#E9722E" transform="translate(327,176)"/>
<path d="M0 0 C4.8274799 1.41292095 8.7162359 3.42974154 13 6 C12.01 6.33 11.02 6.66 10 7 C9.67 6.67 9.34 6.34 9 6 C6.67182036 5.63239269 4.3381615 5.29758419 2 5 C2 4.34 2 3.68 2 3 C1.34 2.67 0.68 2.34 0 2 C0 1.34 0 0.68 0 0 Z " fill="#E37932" transform="translate(385,311)"/>
<path d="M0 0 C0.66 0.66 1.32 1.32 2 2 C3.9931567 2.02375926 3.9931567 2.02375926 6.125 1.625 C7.40375 1.41875 8.6825 1.2125 10 1 C4.32214765 5.88926174 4.32214765 5.88926174 1 6 C-0.75 4.5625 -0.75 4.5625 -2 3 C-1.34 2.01 -0.68 1.02 0 0 Z " fill="#E77D2D" transform="translate(330,305)"/>
<path d="M0 0 C0.33 0 0.66 0 1 0 C1.19441368 2.2910905 1.38033135 4.58290337 1.5625 6.875 C1.66691406 8.15117187 1.77132812 9.42734375 1.87890625 10.7421875 C2 14 2 14 1 16 C0.34 16 -0.32 16 -1 16 C-1.33 17.32 -1.66 18.64 -2 20 C-3.34794719 17.30410561 -2.40931243 15.96922612 -1.546875 13.21875 C-0.48138304 8.89589691 -0.30448271 4.43102473 0 0 Z " fill="#EA8A30" transform="translate(140,211)"/>
<path d="M0 0 C2 2 2 2 2 5 C-0.31 5.66 -2.62 6.32 -5 7 C-5.66 6.34 -6.32 5.68 -7 5 C-5 3 -5 3 -2.9375 2.5 C-2.298125 2.335 -1.65875 2.17 -1 2 C-0.67 1.34 -0.34 0.68 0 0 Z " fill="#F5721C" transform="translate(245,161)"/>
<path d="M0 0 C1 2 1 2 0.0625 5.125 C-0.288125 6.07375 -0.63875 7.0225 -1 8 C-2.98 8 -4.96 8 -7 8 C-6.02133662 6.85373678 -5.04205413 5.70800212 -4.0625 4.5625 C-3.51722656 3.92441406 -2.97195313 3.28632813 -2.41015625 2.62890625 C-1.63204305 1.73008851 -0.84063472 0.84063472 0 0 Z " fill="#DF6737" transform="translate(278,28)"/>
<path d="M0 0 C0.99 0.33 1.98 0.66 3 1 C2.95875 2.010625 2.9175 3.02125 2.875 4.0625 C3.00573843 8.18076052 3.73250786 11.11830533 5 15 C4.34 15.66 3.68 16.32 3 17 C2.49453964 14.91798472 1.99583165 12.83432933 1.5 10.75 C1.2215625 9.58984375 0.943125 8.4296875 0.65625 7.234375 C0 4 0 4 0 0 Z " fill="#F09F23" transform="translate(77,392)"/>
<path d="M0 0 C5.75 1.75 5.75 1.75 8 4 C7.34 5.32 6.68 6.64 6 8 C4.99403703 7.0479279 3.99538437 6.08812654 3 5.125 C2.443125 4.59132813 1.88625 4.05765625 1.3125 3.5078125 C0 2 0 2 0 0 Z " fill="#EC9C24" transform="translate(145,399)"/>
<path d="M0 0 C0.99 0.33 1.98 0.66 3 1 C3 3.31 3 5.62 3 8 C2.01 8.33 1.02 8.66 0 9 C-1.125 3.375 -1.125 3.375 0 0 Z " fill="#F79811" transform="translate(85,360)"/>
<path d="M0 0 C2 3 2 3 1.625 6.1875 C1.41875 7.115625 1.2125 8.04375 1 9 C0.34 8.67 -0.32 8.34 -1 8 C-1.33 8.66 -1.66 9.32 -2 10 C-2.66 10 -3.32 10 -4 10 C-2.8905928 6.51329166 -1.73662334 3.22515763 0 0 Z " fill="#EC8525" transform="translate(179,231)"/>
<path d="M0 0 C5.23272633 1.63958758 10.15196636 3.38952035 15 6 C11.43519238 7.18826921 10.80030093 6.76813843 7.5 5.25 C6.7265625 4.90453125 5.953125 4.5590625 5.15625 4.203125 C3.03358202 3.01873779 1.61426415 1.8005254 0 0 Z " fill="#E07538" transform="translate(353,221)"/>
<path d="M0 0 C1.890625 0.21484375 1.890625 0.21484375 4 1 C5.046875 3.06640625 5.046875 3.06640625 5.75 5.5625 C5.99234375 6.38878906 6.2346875 7.21507812 6.484375 8.06640625 C6.65453125 8.70449219 6.8246875 9.34257812 7 10 C4 9 4 9 2.75 7.0625 C2.5025 6.381875 2.255 5.70125 2 5 C2.33 4.34 2.66 3.68 3 3 C2.01 3 1.02 3 0 3 C0 2.01 0 1.02 0 0 Z " fill="#FB9B0C" transform="translate(89,424)"/>
<path d="M0 0 C0.66 0 1.32 0 2 0 C2 1.32 2 2.64 2 4 C2.66 4 3.32 4 4 4 C4 5.65 4 7.3 4 9 C1.00675737 7.9024777 0.15389099 7.32317108 -1.25 4.375 C-1.4975 3.59125 -1.745 2.8075 -2 2 C-1.34 2 -0.68 2 0 2 C0 1.34 0 0.68 0 0 Z " fill="#F79217" transform="translate(187,409)"/>
<path d="M0 0 C0.75 1.5625 0.75 1.5625 1 4 C-0.36068323 7.22897886 -1.76639367 10.38319684 -5 12 C-4.42365861 7.24518354 -2.44931479 4.02951788 0 0 Z " fill="#E57F32" transform="translate(340,320)"/>
<path d="M0 0 C0.33 0 0.66 0 1 0 C1.55998861 3.80792253 0.9867807 5.0200178 -1.1875 8.3125 C-4 11 -4 11 -6.8125 11.375 C-7.534375 11.25125 -8.25625 11.1275 -9 11 C-8.2575 10.484375 -7.515 9.96875 -6.75 9.4375 C-3.46371455 6.52465608 -2.01236241 3.87566094 0 0 Z " fill="#E57932" transform="translate(337,251)"/>
<path d="M0 0 C0.99 0.33 1.98 0.66 3 1 C2.38722388 3.96175123 1.74627478 5.38058783 0 8 C-0.66 7.67 -1.32 7.34 -2 7 C-2 5.02 -2 3.04 -2 1 C-1.34 0.67 -0.68 0.34 0 0 Z " fill="#F06224" transform="translate(290,32)"/>
<path d="M0 0 C4.25191465 -0.36444983 6.58517997 0.43888497 10 3 C10.33 3.99 10.66 4.98 11 6 C6.49197399 4.74194623 3.5087188 3.09592835 0 0 Z " fill="#E78F2D" transform="translate(302,479)"/>
<path d="M0 0 C0.66 0 1.32 0 2 0 C1.46884894 4.51478398 -0.36620292 7.34666857 -3 11 C-3.93423645 7.98968256 -4.04449911 7.13349732 -3 4 C-2.01 4 -1.02 4 0 4 C0 2.68 0 1.36 0 0 Z " fill="#E9852F" transform="translate(399,461)"/>
<path d="M0 0 C0.66 0.33 1.32 0.66 2 1 C2 1.66 2 2.32 2 3 C1.01 3.495 1.01 3.495 0 4 C-0.0825 4.639375 -0.165 5.27875 -0.25 5.9375 C-0.4975 6.618125 -0.745 7.29875 -1 8 C-4.0625 9.25 -4.0625 9.25 -7 10 C-6.57847656 9.44570313 -6.15695312 8.89140625 -5.72265625 8.3203125 C-5.17480469 7.59585937 -4.62695312 6.87140625 -4.0625 6.125 C-3.51722656 5.40570313 -2.97195313 4.68640625 -2.41015625 3.9453125 C-0.96035376 2.05642921 -0.96035376 2.05642921 0 0 Z " fill="#E78A2D" transform="translate(356,456)"/>
<path d="M0 0 C0 0.66 0 1.32 0 2 C-0.99 2 -1.98 2 -3 2 C-3 2.66 -3 3.32 -3 4 C-3.99 4 -4.98 4 -6 4 C-6 4.99 -6 5.98 -6 7 C-7.65 7 -9.3 7 -11 7 C-4.48275862 0 -4.48275862 0 0 0 Z " fill="#E8832D" transform="translate(312,357)"/>
<path d="M0 0 C1.65 0 3.3 0 5 0 C3.02 2.31 1.04 4.62 -1 7 C-1.99 6.67 -2.98 6.34 -4 6 C-3.34 5.01 -2.68 4.02 -2 3 C-1.01 3 -0.02 3 1 3 C0.67 2.01 0.34 1.02 0 0 Z " fill="#E17A38" transform="translate(364,284)"/>
<path d="M0 0 C2.15377564 2.62198774 3.40072174 4.64404172 4 8 C2.68 8 1.36 8 0 8 C-1.125 6.25 -1.125 6.25 -2 4 C-1.125 1.75 -1.125 1.75 0 0 Z " fill="#EF7828" transform="translate(279,246)"/>
<path d="M0 0 C0.66 0.99 1.32 1.98 2 3 C0.02 3.99 0.02 3.99 -2 5 C-2 5.66 -2 6.32 -2 7 C-2.66 7 -3.32 7 -4 7 C-4.33 7.99 -4.66 8.98 -5 10 C-5.33 9.34 -5.66 8.68 -6 8 C-5.67 7.01 -5.34 6.02 -5 5 C-4.34 4.67 -3.68 4.34 -3 4 C-2.67 3.01 -2.34 2.02 -2 1 C-1.34 0.67 -0.68 0.34 0 0 Z " fill="#F0871E" transform="translate(141,226)"/>
<path d="M0 0 C2.97 0 5.94 0 9 0 C9.33 0.99 9.66 1.98 10 3 C8.35 3.33 6.7 3.66 5 4 C4.67 3.34 4.34 2.68 4 2 C3.01 2 2.02 2 1 2 C0.67 1.34 0.34 0.68 0 0 Z " fill="#F16020" transform="translate(270,36)"/>
<path d="M0 0 C0 0.99 0 1.98 0 3 C-0.66 3 -1.32 3 -2 3 C-2 3.99 -2 4.98 -2 6 C-4.475 5.01 -4.475 5.01 -7 4 C-3.375 0 -3.375 0 0 0 Z " fill="#F29518" transform="translate(184,424)"/>
<path d="M0 0 C0.75 1.5625 0.75 1.5625 1 4 C-0.13084437 6.50286409 -1.52139516 8.67007722 -3 11 C-3.66 11 -4.32 11 -5 11 C-3.77472971 6.94718288 -2.30119506 3.55639236 0 0 Z " fill="#E3772F" transform="translate(298,197)"/>
<path d="M0 0 C4.43458973 1.3937282 6.87378374 3.60582235 10 7 C7.5625 6.625 7.5625 6.625 5 6 C4.67 5.34 4.34 4.68 4 4 C3.34 4.66 2.68 5.32 2 6 C1.34 4.02 0.68 2.04 0 0 Z " fill="#E28A38" transform="translate(129,187)"/>
<path d="M0 0 C0.66 0 1.32 0 2 0 C1.34 1.65 0.68 3.3 0 5 C0.66 5 1.32 5 2 5 C2 5.66 2 6.32 2 7 C-3.75 5.25 -3.75 5.25 -6 3 C-5.195625 2.87625 -4.39125 2.7525 -3.5625 2.625 C-2.716875 2.41875 -1.87125 2.2125 -1 2 C-0.67 1.34 -0.34 0.68 0 0 Z " fill="#EA8F2D" transform="translate(286,440)"/>
<path d="M0 0 C0.33 0 0.66 0 1 0 C1.99 4.62 2.98 9.24 4 14 C3.34 14 2.68 14 2 14 C-0.3992233 9.35150485 -0.19957409 5.08913926 0 0 Z " fill="#EB9B2B" transform="translate(133,424)"/>
<path d="M0 0 C0.66 0 1.32 0 2 0 C2.33 0.99 2.66 1.98 3 3 C2.01 3.66 1.02 4.32 0 5 C-0.33 5.66 -0.66 6.32 -1 7 C-2.32 5.35 -3.64 3.7 -5 2 C-4.360625 1.855625 -3.72125 1.71125 -3.0625 1.5625 C-1.02454854 1.18992819 -1.02454854 1.18992819 0 0 Z " fill="#EB9027" transform="translate(260,422)"/>
<path d="M0 0 C0.66 0.99 1.32 1.98 2 3 C1.34 3 0.68 3 0 3 C-0.33 3.66 -0.66 4.32 -1 5 C-1.99 5.66 -2.98 6.32 -4 7 C-4.33 5.35 -4.66 3.7 -5 2 C-3.35 1.34 -1.7 0.68 0 0 Z " fill="#F58D1E" transform="translate(238,379)"/>
<path d="M0 0 C0.66 0 1.32 0 2 0 C2 1.98 2 3.96 2 6 C0.68 6 -0.64 6 -2 6 C-2 4.68 -2 3.36 -2 2 C-1.34 2 -0.68 2 0 2 C0 1.34 0 0.68 0 0 Z " fill="#F98A12" transform="translate(195,336)"/>
<path d="M0 0 C0.33 1.32 0.66 2.64 1 4 C0.34 4 -0.32 4 -1 4 C-1.4021875 5.7015625 -1.4021875 5.7015625 -1.8125 7.4375 C-2.204375 8.613125 -2.59625 9.78875 -3 11 C-3.99 11.33 -4.98 11.66 -6 12 C-4.68139111 7.38486888 -2.78644563 3.90102388 0 0 Z " fill="#E99726" transform="translate(102,286)"/>
<path d="M0 0 C0.66 1.32 1.32 2.64 2 4 C1.01 4.33 0.02 4.66 -1 5 C-1 5.66 -1 6.32 -1 7 C-1.66 7 -2.32 7 -3 7 C-3.66 8.32 -4.32 9.64 -5 11 C-5 7.58678765 -4.33132534 6.60527115 -2.5 3.8125 C-2.0359375 3.09707031 -1.571875 2.38164062 -1.09375 1.64453125 C-0.7328125 1.10183594 -0.371875 0.55914062 0 0 Z " fill="#E7902D" transform="translate(118,262)"/>
<path d="M0 0 C7 8.44827586 7 8.44827586 7 13 C3.02814384 8.894534 0.29123499 5.97031739 0 0 Z " fill="#E06F3D" transform="translate(260,64)"/>
<path d="M0 0 C-1.65 1.65 -3.3 3.3 -5 5 C-5.33 3.35 -5.66 1.7 -6 0 C-3 -1 -3 -1 0 0 Z " fill="#F38523" transform="translate(145,206)"/>
<path d="M0 0 C0 0.99 0 1.98 0 3 C-2.64 3.99 -5.28 4.98 -8 6 C-7.67 4.68 -7.34 3.36 -7 2 C-4.69 1.34 -2.38 0.68 0 0 Z " fill="#F47921" transform="translate(221,187)"/>
<path d="M0 0 C1.65 0 3.3 0 5 0 C5.66 1.32 6.32 2.64 7 4 C5.02 4 3.04 4 1 4 C0.67 2.68 0.34 1.36 0 0 Z " fill="#F26220" transform="translate(308,68)"/>
<path d="M0 0 C1.14926266 0.95421808 2.29430541 1.91352045 3.4375 2.875 C4.07558594 3.40867187 4.71367187 3.94234375 5.37109375 4.4921875 C7 6 7 6 8 8 C6.35 7.67 4.7 7.34 3 7 C2.67 6.01 2.34 5.02 2 4 C1.01 3.34 0.02 2.68 -1 2 C-0.67 1.34 -0.34 0.68 0 0 Z " fill="#E79D2F" transform="translate(160,476)"/>
<path d="M0 0 C2.875 -0.1875 2.875 -0.1875 6 0 C6.66 0.99 7.32 1.98 8 3 C7.01 3.33 6.02 3.66 5 4 C5 3.34 5 2.68 5 2 C3.02 2.66 1.04 3.32 -1 4 C-0.67 2.68 -0.34 1.36 0 0 Z " fill="#F89210" transform="translate(168,416)"/>
<path d="M0 0 C0.103125 0.639375 0.20625 1.27875 0.3125 1.9375 C0.539375 2.618125 0.76625 3.29875 1 4 C1.99 4.33 2.98 4.66 4 5 C-0.75 8 -0.75 8 -3 8 C-1.125 2.25 -1.125 2.25 0 0 Z " fill="#EF9323" transform="translate(92,303)"/>
<path d="M0 0 C0.99 0.66 1.98 1.32 3 2 C0.03 4.475 0.03 4.475 -3 7 C-3.66 6.67 -4.32 6.34 -5 6 C-4.67 5.01 -4.34 4.02 -4 3 C-1.9375 2.3125 -1.9375 2.3125 0 2 C0 1.34 0 0.68 0 0 Z " fill="#E47A30" transform="translate(357,291)"/>
<path d="M0 0 C0.66 0.33 1.32 0.66 2 1 C2 1.66 2 2.32 2 3 C2.66 3 3.32 3 4 3 C4 4.32 4 5.64 4 7 C3.34 7 2.68 7 2 7 C1.67 6.34 1.34 5.68 1 5 C0.34 5 -0.32 5 -1 5 C-0.67 3.35 -0.34 1.7 0 0 Z " fill="#EE7926" transform="translate(275,239)"/>
<path d="M0 0 C0.66 0 1.32 0 2 0 C1.01 2.97 0.02 5.94 -1 9 C-1.33 9 -1.66 9 -2 9 C-2.33 6.69 -2.66 4.38 -3 2 C-2.01 2 -1.02 2 0 2 C0 1.34 0 0.68 0 0 Z " fill="#E7772E" transform="translate(287,192)"/>
<path d="M0 0 C2.31 0.66 4.62 1.32 7 2 C7.33 3.32 7.66 4.64 8 6 C4.63408134 4.55746343 2.48952921 2.66735273 0 0 Z " fill="#EFA028" transform="translate(115,458)"/>
<path d="M0 0 C1.9451 2.91765 2.45276317 4.62537285 3 8 C1.68 7.67 0.36 7.34 -1 7 C-0.67 4.69 -0.34 2.38 0 0 Z " fill="#F19A25" transform="translate(137,439)"/>
<path d="M0 0 C0.99 0 1.98 0 3 0 C3 0.99 3 1.98 3 3 C3.66 3.33 4.32 3.66 5 4 C4.34 5.32 3.68 6.64 3 8 C0 2.25 0 2.25 0 0 Z " fill="#ED8E27" transform="translate(241,402)"/>
<path d="M0 0 C0.66 0.33 1.32 0.66 2 1 C2 2.65 2 4.3 2 6 C1.01 6.33 0.02 6.66 -1 7 C-1.04254356 5.00045254 -1.04080783 2.99958364 -1 1 C-0.67 0.67 -0.34 0.34 0 0 Z " fill="#F59014" transform="translate(185,377)"/>
<path d="M0 0 C0.99 0.66 1.98 1.32 3 2 C-0.465 4.97 -0.465 4.97 -4 8 C-3.67 6.35 -3.34 4.7 -3 3 C-2.01 3 -1.02 3 0 3 C0 2.01 0 1.02 0 0 Z " fill="#E08235" transform="translate(313,321)"/>
<path d="M0 0 C2.475 0.99 2.475 0.99 5 2 C2.61426621 3.89213369 0.92824652 5.02391783 -2 6 C-2.33 5.01 -2.66 4.02 -3 3 C-2.01 2.34 -1.02 1.68 0 1 C0 0.67 0 0.34 0 0 Z " fill="#EA7329" transform="translate(336,212)"/>
<path d="M0 0 C1.65 0 3.3 0 5 0 C3.515 3.465 3.515 3.465 2 7 C0.5393715 4.35261084 0 3.10551666 0 0 Z " fill="#E76D2E" transform="translate(316,128)"/>
<path d="M0 0 C1.5 1 1.5 1 3 3 C3.27345479 5.71846235 3.13491285 8.25677199 3 11 C2.34 10.67 1.68 10.34 1 10 C0.37400757 6.61964088 0 3.43830115 0 0 Z " fill="#EA652F" transform="translate(327,76)"/>
<path d="M0 0 C1.65 0 3.3 0 5 0 C4.67 1.32 4.34 2.64 4 4 C2.68 4 1.36 4 0 4 C0 2.68 0 1.36 0 0 Z " fill="#F89D0E" transform="translate(107,448)"/>
<path d="M0 0 C0.66 0.33 1.32 0.66 2 1 C0.515 3.475 0.515 3.475 -1 6 C-2.32 5.67 -3.64 5.34 -5 5 C-3.35 3.35 -1.7 1.7 0 0 Z " fill="#DE7D36" transform="translate(346,314)"/>
<path d="M0 0 C2.31 0.33 4.62 0.66 7 1 C7.33 1.99 7.66 2.98 8 4 C7.01 4.33 6.02 4.66 5 5 C5 4.01 5 3.02 5 2 C3.35 2.33 1.7 2.66 0 3 C0 2.01 0 1.02 0 0 Z " fill="#FB8E0E" transform="translate(99,293)"/>
<path d="M0 0 C1.32 0 2.64 0 4 0 C3.67 1.32 3.34 2.64 3 4 C1.35 3.67 -0.3 3.34 -2 3 C-1.34 2.01 -0.68 1.02 0 0 Z " fill="#F36F21" transform="translate(379,263)"/>
<path d="M0 0 C0.88492145 2.47778006 1.11637742 3.66056586 0.25 6.1875 C-1 8 -1 8 -4 9 C-2.94124926 5.59687262 -1.99097846 2.98646769 0 0 Z " fill="#E26C34" transform="translate(265,43)"/>
<path d="" fill="#C29E61" transform="translate(0,0)"/>
</svg>
